<?xml version="1.0" encoding="utf-8" standalone="no"?>
<!DOCTYPE svg PUBLIC "-//W3C//DTD SVG 1.1//EN"
  "http://www.w3.org/Graphics/SVG/1.1/DTD/svg11.dtd">
<svg xmlns:xlink="http://www.w3.org/1999/xlink" width="520.143437pt" height="325.986375pt" viewBox="0 0 520.143437 325.986375" xmlns="http://www.w3.org/2000/svg" version="1.1">
 <metadata>
  <rdf:RDF xmlns:dc="http://purl.org/dc/elements/1.1/" xmlns:cc="http://creativecommons.org/ns#" xmlns:rdf="http://www.w3.org/1999/02/22-rdf-syntax-ns#">
   <cc:Work>
    <dc:type rdf:resource="http://purl.org/dc/dcmitype/StillImage"/>
    <dc:date>2025-04-15T13:20:17.243627</dc:date>
    <dc:format>image/svg+xml</dc:format>
    <dc:creator>
     <cc:Agent>
      <dc:title>Matplotlib v3.10.1, https://matplotlib.org/</dc:title>
     </cc:Agent>
    </dc:creator>
   </cc:Work>
  </rdf:RDF>
 </metadata>
 <defs>
  <style type="text/css">*{stroke-linejoin: round; stroke-linecap: butt}</style>
 </defs>
 <g id="figure_1">
  <g id="patch_1">
   <path d="M 0 325.986375 
L 520.143437 325.986375 
L 520.143437 0 
L 0 0 
z
" style="fill: #ffffff"/>
  </g>
  <g id="axes_1">
   <g id="patch_2">
    <path d="M 43.78125 288.430125 
L 400.90125 288.430125 
L 400.90125 22.318125 
L 43.78125 22.318125 
z
" style="fill: #ffffff"/>
   </g>
   <g id="matplotlib.axis_1">
    <g id="xtick_1">
     <g id="line2d_1">
      <path d="M 60.013977 288.430125 
L 60.013977 22.318125 
" clip-path="url(#p8731d51228)" style="fill: none; stroke: #b0b0b0; stroke-width: 0.8; stroke-linecap: square"/>
     </g>
     <g id="line2d_2">
      <defs>
       <path id="mfc5f585ba1" d="M 0 0 
L 0 3.5 
" style="stroke: #000000; stroke-width: 0.8"/>
      </defs>
      <g>
       <use xlink:href="#mfc5f585ba1" x="60.013977" y="288.430125" style="stroke: #000000; stroke-width: 0.8"/>
      </g>
     </g>
     <g id="text_1">
      <!-- −100 -->
      <g transform="translate(46.280384 303.028562) scale(0.1 -0.1)">
       <defs>
        <path id="DejaVuSans-2212" d="M 678 2272 
L 4684 2272 
L 4684 1741 
L 678 1741 
L 678 2272 
z
" transform="scale(0.015625)"/>
        <path id="DejaVuSans-31" d="M 794 531 
L 1825 531 
L 1825 4091 
L 703 3866 
L 703 4441 
L 1819 4666 
L 2450 4666 
L 2450 531 
L 3481 531 
L 3481 0 
L 794 0 
L 794 531 
z
" transform="scale(0.015625)"/>
        <path id="DejaVuSans-30" d="M 2034 4250 
Q 1547 4250 1301 3770 
Q 1056 3291 1056 2328 
Q 1056 1369 1301 889 
Q 1547 409 2034 409 
Q 2525 409 2770 889 
Q 3016 1369 3016 2328 
Q 3016 3291 2770 3770 
Q 2525 4250 2034 4250 
z
M 2034 4750 
Q 2819 4750 3233 4129 
Q 3647 3509 3647 2328 
Q 3647 1150 3233 529 
Q 2819 -91 2034 -91 
Q 1250 -91 836 529 
Q 422 1150 422 2328 
Q 422 3509 836 4129 
Q 1250 4750 2034 4750 
z
" transform="scale(0.015625)"/>
       </defs>
       <use xlink:href="#DejaVuSans-2212"/>
       <use xlink:href="#DejaVuSans-31" transform="translate(83.789062 0)"/>
       <use xlink:href="#DejaVuSans-30" transform="translate(147.412109 0)"/>
       <use xlink:href="#DejaVuSans-30" transform="translate(211.035156 0)"/>
      </g>
     </g>
    </g>
    <g id="xtick_2">
     <g id="line2d_3">
      <path d="M 100.595795 288.430125 
L 100.595795 22.318125 
" clip-path="url(#p8731d51228)" style="fill: none; stroke: #b0b0b0; stroke-width: 0.8; stroke-linecap: square"/>
     </g>
     <g id="line2d_4">
      <g>
       <use xlink:href="#mfc5f585ba1" x="100.595795" y="288.430125" style="stroke: #000000; stroke-width: 0.8"/>
      </g>
     </g>
     <g id="text_2">
      <!-- −50 -->
      <g transform="translate(90.043452 303.028562) scale(0.1 -0.1)">
       <defs>
        <path id="DejaVuSans-35" d="M 691 4666 
L 3169 4666 
L 3169 4134 
L 1269 4134 
L 1269 2991 
Q 1406 3038 1543 3061 
Q 1681 3084 1819 3084 
Q 2600 3084 3056 2656 
Q 3513 2228 3513 1497 
Q 3513 744 3044 326 
Q 2575 -91 1722 -91 
Q 1428 -91 1123 -41 
Q 819 9 494 109 
L 494 744 
Q 775 591 1075 516 
Q 1375 441 1709 441 
Q 2250 441 2565 725 
Q 2881 1009 2881 1497 
Q 2881 1984 2565 2268 
Q 2250 2553 1709 2553 
Q 1456 2553 1204 2497 
Q 953 2441 691 2322 
L 691 4666 
z
" transform="scale(0.015625)"/>
       </defs>
       <use xlink:href="#DejaVuSans-2212"/>
       <use xlink:href="#DejaVuSans-35" transform="translate(83.789062 0)"/>
       <use xlink:href="#DejaVuSans-30" transform="translate(147.412109 0)"/>
      </g>
     </g>
    </g>
    <g id="xtick_3">
     <g id="line2d_5">
      <path d="M 141.177614 288.430125 
L 141.177614 22.318125 
" clip-path="url(#p8731d51228)" style="fill: none; stroke: #b0b0b0; stroke-width: 0.8; stroke-linecap: square"/>
     </g>
     <g id="line2d_6">
      <g>
       <use xlink:href="#mfc5f585ba1" x="141.177614" y="288.430125" style="stroke: #000000; stroke-width: 0.8"/>
      </g>
     </g>
     <g id="text_3">
      <!-- 0 -->
      <g transform="translate(137.996364 303.028562) scale(0.1 -0.1)">
       <use xlink:href="#DejaVuSans-30"/>
      </g>
     </g>
    </g>
    <g id="xtick_4">
     <g id="line2d_7">
      <path d="M 181.759432 288.430125 
L 181.759432 22.318125 
" clip-path="url(#p8731d51228)" style="fill: none; stroke: #b0b0b0; stroke-width: 0.8; stroke-linecap: square"/>
     </g>
     <g id="line2d_8">
      <g>
       <use xlink:href="#mfc5f585ba1" x="181.759432" y="288.430125" style="stroke: #000000; stroke-width: 0.8"/>
      </g>
     </g>
     <g id="text_4">
      <!-- 50 -->
      <g transform="translate(175.396932 303.028562) scale(0.1 -0.1)">
       <use xlink:href="#DejaVuSans-35"/>
       <use xlink:href="#DejaVuSans-30" transform="translate(63.623047 0)"/>
      </g>
     </g>
    </g>
    <g id="xtick_5">
     <g id="line2d_9">
      <path d="M 222.34125 288.430125 
L 222.34125 22.318125 
" clip-path="url(#p8731d51228)" style="fill: none; stroke: #b0b0b0; stroke-width: 0.8; stroke-linecap: square"/>
     </g>
     <g id="line2d_10">
      <g>
       <use xlink:href="#mfc5f585ba1" x="222.34125" y="288.430125" style="stroke: #000000; stroke-width: 0.8"/>
      </g>
     </g>
     <g id="text_5">
      <!-- 100 -->
      <g transform="translate(212.7975 303.028562) scale(0.1 -0.1)">
       <use xlink:href="#DejaVuSans-31"/>
       <use xlink:href="#DejaVuSans-30" transform="translate(63.623047 0)"/>
       <use xlink:href="#DejaVuSans-30" transform="translate(127.246094 0)"/>
      </g>
     </g>
    </g>
    <g id="xtick_6">
     <g id="line2d_11">
      <path d="M 262.923068 288.430125 
L 262.923068 22.318125 
" clip-path="url(#p8731d51228)" style="fill: none; stroke: #b0b0b0; stroke-width: 0.8; stroke-linecap: square"/>
     </g>
     <g id="line2d_12">
      <g>
       <use xlink:href="#mfc5f585ba1" x="262.923068" y="288.430125" style="stroke: #000000; stroke-width: 0.8"/>
      </g>
     </g>
     <g id="text_6">
      <!-- 150 -->
      <g transform="translate(253.379318 303.028562) scale(0.1 -0.1)">
       <use xlink:href="#DejaVuSans-31"/>
       <use xlink:href="#DejaVuSans-35" transform="translate(63.623047 0)"/>
       <use xlink:href="#DejaVuSans-30" transform="translate(127.246094 0)"/>
      </g>
     </g>
    </g>
    <g id="xtick_7">
     <g id="line2d_13">
      <path d="M 303.504886 288.430125 
L 303.504886 22.318125 
" clip-path="url(#p8731d51228)" style="fill: none; stroke: #b0b0b0; stroke-width: 0.8; stroke-linecap: square"/>
     </g>
     <g id="line2d_14">
      <g>
       <use xlink:href="#mfc5f585ba1" x="303.504886" y="288.430125" style="stroke: #000000; stroke-width: 0.8"/>
      </g>
     </g>
     <g id="text_7">
      <!-- 200 -->
      <g transform="translate(293.961136 303.028562) scale(0.1 -0.1)">
       <defs>
        <path id="DejaVuSans-32" d="M 1228 531 
L 3431 531 
L 3431 0 
L 469 0 
L 469 531 
Q 828 903 1448 1529 
Q 2069 2156 2228 2338 
Q 2531 2678 2651 2914 
Q 2772 3150 2772 3378 
Q 2772 3750 2511 3984 
Q 2250 4219 1831 4219 
Q 1534 4219 1204 4116 
Q 875 4013 500 3803 
L 500 4441 
Q 881 4594 1212 4672 
Q 1544 4750 1819 4750 
Q 2544 4750 2975 4387 
Q 3406 4025 3406 3419 
Q 3406 3131 3298 2873 
Q 3191 2616 2906 2266 
Q 2828 2175 2409 1742 
Q 1991 1309 1228 531 
z
" transform="scale(0.015625)"/>
       </defs>
       <use xlink:href="#DejaVuSans-32"/>
       <use xlink:href="#DejaVuSans-30" transform="translate(63.623047 0)"/>
       <use xlink:href="#DejaVuSans-30" transform="translate(127.246094 0)"/>
      </g>
     </g>
    </g>
    <g id="xtick_8">
     <g id="line2d_15">
      <path d="M 344.086705 288.430125 
L 344.086705 22.318125 
" clip-path="url(#p8731d51228)" style="fill: none; stroke: #b0b0b0; stroke-width: 0.8; stroke-linecap: square"/>
     </g>
     <g id="line2d_16">
      <g>
       <use xlink:href="#mfc5f585ba1" x="344.086705" y="288.430125" style="stroke: #000000; stroke-width: 0.8"/>
      </g>
     </g>
     <g id="text_8">
      <!-- 250 -->
      <g transform="translate(334.542955 303.028562) scale(0.1 -0.1)">
       <use xlink:href="#DejaVuSans-32"/>
       <use xlink:href="#DejaVuSans-35" transform="translate(63.623047 0)"/>
       <use xlink:href="#DejaVuSans-30" transform="translate(127.246094 0)"/>
      </g>
     </g>
    </g>
    <g id="xtick_9">
     <g id="line2d_17">
      <path d="M 384.668523 288.430125 
L 384.668523 22.318125 
" clip-path="url(#p8731d51228)" style="fill: none; stroke: #b0b0b0; stroke-width: 0.8; stroke-linecap: square"/>
     </g>
     <g id="line2d_18">
      <g>
       <use xlink:href="#mfc5f585ba1" x="384.668523" y="288.430125" style="stroke: #000000; stroke-width: 0.8"/>
      </g>
     </g>
     <g id="text_9">
      <!-- 300 -->
      <g transform="translate(375.124773 303.028562) scale(0.1 -0.1)">
       <defs>
        <path id="DejaVuSans-33" d="M 2597 2516 
Q 3050 2419 3304 2112 
Q 3559 1806 3559 1356 
Q 3559 666 3084 287 
Q 2609 -91 1734 -91 
Q 1441 -91 1130 -33 
Q 819 25 488 141 
L 488 750 
Q 750 597 1062 519 
Q 1375 441 1716 441 
Q 2309 441 2620 675 
Q 2931 909 2931 1356 
Q 2931 1769 2642 2001 
Q 2353 2234 1838 2234 
L 1294 2234 
L 1294 2753 
L 1863 2753 
Q 2328 2753 2575 2939 
Q 2822 3125 2822 3475 
Q 2822 3834 2567 4026 
Q 2313 4219 1838 4219 
Q 1578 4219 1281 4162 
Q 984 4106 628 3988 
L 628 4550 
Q 988 4650 1302 4700 
Q 1616 4750 1894 4750 
Q 2613 4750 3031 4423 
Q 3450 4097 3450 3541 
Q 3450 3153 3228 2886 
Q 3006 2619 2597 2516 
z
" transform="scale(0.015625)"/>
       </defs>
       <use xlink:href="#DejaVuSans-33"/>
       <use xlink:href="#DejaVuSans-30" transform="translate(63.623047 0)"/>
       <use xlink:href="#DejaVuSans-30" transform="translate(127.246094 0)"/>
      </g>
     </g>
    </g>
    <g id="text_10">
     <!-- x -->
     <g transform="translate(219.381875 316.706687) scale(0.1 -0.1)">
      <defs>
       <path id="DejaVuSans-78" d="M 3513 3500 
L 2247 1797 
L 3578 0 
L 2900 0 
L 1881 1375 
L 863 0 
L 184 0 
L 1544 1831 
L 300 3500 
L 978 3500 
L 1906 2253 
L 2834 3500 
L 3513 3500 
z
" transform="scale(0.015625)"/>
      </defs>
      <use xlink:href="#DejaVuSans-78"/>
     </g>
    </g>
   </g>
   <g id="matplotlib.axis_2">
    <g id="ytick_1">
     <g id="line2d_19">
      <path d="M 43.78125 276.334125 
L 400.90125 276.334125 
" clip-path="url(#p8731d51228)" style="fill: none; stroke: #b0b0b0; stroke-width: 0.8; stroke-linecap: square"/>
     </g>
     <g id="line2d_20">
      <defs>
       <path id="md529ba73b8" d="M 0 0 
L -3.5 0 
" style="stroke: #000000; stroke-width: 0.8"/>
      </defs>
      <g>
       <use xlink:href="#md529ba73b8" x="43.78125" y="276.334125" style="stroke: #000000; stroke-width: 0.8"/>
      </g>
     </g>
     <g id="text_11">
      <!-- 0.0 -->
      <g transform="translate(20.878125 280.133344) scale(0.1 -0.1)">
       <defs>
        <path id="DejaVuSans-2e" d="M 684 794 
L 1344 794 
L 1344 0 
L 684 0 
L 684 794 
z
" transform="scale(0.015625)"/>
       </defs>
       <use xlink:href="#DejaVuSans-30"/>
       <use xlink:href="#DejaVuSans-2e" transform="translate(63.623047 0)"/>
       <use xlink:href="#DejaVuSans-30" transform="translate(95.410156 0)"/>
      </g>
     </g>
    </g>
    <g id="ytick_2">
     <g id="line2d_21">
      <path d="M 43.78125 227.888378 
L 400.90125 227.888378 
" clip-path="url(#p8731d51228)" style="fill: none; stroke: #b0b0b0; stroke-width: 0.8; stroke-linecap: square"/>
     </g>
     <g id="line2d_22">
      <g>
       <use xlink:href="#md529ba73b8" x="43.78125" y="227.888378" style="stroke: #000000; stroke-width: 0.8"/>
      </g>
     </g>
     <g id="text_12">
      <!-- 0.2 -->
      <g transform="translate(20.878125 231.687596) scale(0.1 -0.1)">
       <use xlink:href="#DejaVuSans-30"/>
       <use xlink:href="#DejaVuSans-2e" transform="translate(63.623047 0)"/>
       <use xlink:href="#DejaVuSans-32" transform="translate(95.410156 0)"/>
      </g>
     </g>
    </g>
    <g id="ytick_3">
     <g id="line2d_23">
      <path d="M 43.78125 179.44263 
L 400.90125 179.44263 
" clip-path="url(#p8731d51228)" style="fill: none; stroke: #b0b0b0; stroke-width: 0.8; stroke-linecap: square"/>
     </g>
     <g id="line2d_24">
      <g>
       <use xlink:href="#md529ba73b8" x="43.78125" y="179.44263" style="stroke: #000000; stroke-width: 0.8"/>
      </g>
     </g>
     <g id="text_13">
      <!-- 0.4 -->
      <g transform="translate(20.878125 183.241849) scale(0.1 -0.1)">
       <defs>
        <path id="DejaVuSans-34" d="M 2419 4116 
L 825 1625 
L 2419 1625 
L 2419 4116 
z
M 2253 4666 
L 3047 4666 
L 3047 1625 
L 3713 1625 
L 3713 1100 
L 3047 1100 
L 3047 0 
L 2419 0 
L 2419 1100 
L 313 1100 
L 313 1709 
L 2253 4666 
z
" transform="scale(0.015625)"/>
       </defs>
       <use xlink:href="#DejaVuSans-30"/>
       <use xlink:href="#DejaVuSans-2e" transform="translate(63.623047 0)"/>
       <use xlink:href="#DejaVuSans-34" transform="translate(95.410156 0)"/>
      </g>
     </g>
    </g>
    <g id="ytick_4">
     <g id="line2d_25">
      <path d="M 43.78125 130.996883 
L 400.90125 130.996883 
" clip-path="url(#p8731d51228)" style="fill: none; stroke: #b0b0b0; stroke-width: 0.8; stroke-linecap: square"/>
     </g>
     <g id="line2d_26">
      <g>
       <use xlink:href="#md529ba73b8" x="43.78125" y="130.996883" style="stroke: #000000; stroke-width: 0.8"/>
      </g>
     </g>
     <g id="text_14">
      <!-- 0.6 -->
      <g transform="translate(20.878125 134.796102) scale(0.1 -0.1)">
       <defs>
        <path id="DejaVuSans-36" d="M 2113 2584 
Q 1688 2584 1439 2293 
Q 1191 2003 1191 1497 
Q 1191 994 1439 701 
Q 1688 409 2113 409 
Q 2538 409 2786 701 
Q 3034 994 3034 1497 
Q 3034 2003 2786 2293 
Q 2538 2584 2113 2584 
z
M 3366 4563 
L 3366 3988 
Q 3128 4100 2886 4159 
Q 2644 4219 2406 4219 
Q 1781 4219 1451 3797 
Q 1122 3375 1075 2522 
Q 1259 2794 1537 2939 
Q 1816 3084 2150 3084 
Q 2853 3084 3261 2657 
Q 3669 2231 3669 1497 
Q 3669 778 3244 343 
Q 2819 -91 2113 -91 
Q 1303 -91 875 529 
Q 447 1150 447 2328 
Q 447 3434 972 4092 
Q 1497 4750 2381 4750 
Q 2619 4750 2861 4703 
Q 3103 4656 3366 4563 
z
" transform="scale(0.015625)"/>
       </defs>
       <use xlink:href="#DejaVuSans-30"/>
       <use xlink:href="#DejaVuSans-2e" transform="translate(63.623047 0)"/>
       <use xlink:href="#DejaVuSans-36" transform="translate(95.410156 0)"/>
      </g>
     </g>
    </g>
    <g id="ytick_5">
     <g id="line2d_27">
      <path d="M 43.78125 82.551136 
L 400.90125 82.551136 
" clip-path="url(#p8731d51228)" style="fill: none; stroke: #b0b0b0; stroke-width: 0.8; stroke-linecap: square"/>
     </g>
     <g id="line2d_28">
      <g>
       <use xlink:href="#md529ba73b8" x="43.78125" y="82.551136" style="stroke: #000000; stroke-width: 0.8"/>
      </g>
     </g>
     <g id="text_15">
      <!-- 0.8 -->
      <g transform="translate(20.878125 86.350354) scale(0.1 -0.1)">
       <defs>
        <path id="DejaVuSans-38" d="M 2034 2216 
Q 1584 2216 1326 1975 
Q 1069 1734 1069 1313 
Q 1069 891 1326 650 
Q 1584 409 2034 409 
Q 2484 409 2743 651 
Q 3003 894 3003 1313 
Q 3003 1734 2745 1975 
Q 2488 2216 2034 2216 
z
M 1403 2484 
Q 997 2584 770 2862 
Q 544 3141 544 3541 
Q 544 4100 942 4425 
Q 1341 4750 2034 4750 
Q 2731 4750 3128 4425 
Q 3525 4100 3525 3541 
Q 3525 3141 3298 2862 
Q 3072 2584 2669 2484 
Q 3125 2378 3379 2068 
Q 3634 1759 3634 1313 
Q 3634 634 3220 271 
Q 2806 -91 2034 -91 
Q 1263 -91 848 271 
Q 434 634 434 1313 
Q 434 1759 690 2068 
Q 947 2378 1403 2484 
z
M 1172 3481 
Q 1172 3119 1398 2916 
Q 1625 2713 2034 2713 
Q 2441 2713 2670 2916 
Q 2900 3119 2900 3481 
Q 2900 3844 2670 4047 
Q 2441 4250 2034 4250 
Q 1625 4250 1398 4047 
Q 1172 3844 1172 3481 
z
" transform="scale(0.015625)"/>
       </defs>
       <use xlink:href="#DejaVuSans-30"/>
       <use xlink:href="#DejaVuSans-2e" transform="translate(63.623047 0)"/>
       <use xlink:href="#DejaVuSans-38" transform="translate(95.410156 0)"/>
      </g>
     </g>
    </g>
    <g id="ytick_6">
     <g id="line2d_29">
      <path d="M 43.78125 34.105388 
L 400.90125 34.105388 
" clip-path="url(#p8731d51228)" style="fill: none; stroke: #b0b0b0; stroke-width: 0.8; stroke-linecap: square"/>
     </g>
     <g id="line2d_30">
      <g>
       <use xlink:href="#md529ba73b8" x="43.78125" y="34.105388" style="stroke: #000000; stroke-width: 0.8"/>
      </g>
     </g>
     <g id="text_16">
      <!-- 1.0 -->
      <g transform="translate(20.878125 37.904607) scale(0.1 -0.1)">
       <use xlink:href="#DejaVuSans-31"/>
       <use xlink:href="#DejaVuSans-2e" transform="translate(63.623047 0)"/>
       <use xlink:href="#DejaVuSans-30" transform="translate(95.410156 0)"/>
      </g>
     </g>
    </g>
    <g id="text_17">
     <!-- psi -->
     <g transform="translate(14.798438 162.542094) rotate(-90) scale(0.1 -0.1)">
      <defs>
       <path id="DejaVuSans-70" d="M 1159 525 
L 1159 -1331 
L 581 -1331 
L 581 3500 
L 1159 3500 
L 1159 2969 
Q 1341 3281 1617 3432 
Q 1894 3584 2278 3584 
Q 2916 3584 3314 3078 
Q 3713 2572 3713 1747 
Q 3713 922 3314 415 
Q 2916 -91 2278 -91 
Q 1894 -91 1617 61 
Q 1341 213 1159 525 
z
M 3116 1747 
Q 3116 2381 2855 2742 
Q 2594 3103 2138 3103 
Q 1681 3103 1420 2742 
Q 1159 2381 1159 1747 
Q 1159 1113 1420 752 
Q 1681 391 2138 391 
Q 2594 391 2855 752 
Q 3116 1113 3116 1747 
z
" transform="scale(0.015625)"/>
       <path id="DejaVuSans-73" d="M 2834 3397 
L 2834 2853 
Q 2591 2978 2328 3040 
Q 2066 3103 1784 3103 
Q 1356 3103 1142 2972 
Q 928 2841 928 2578 
Q 928 2378 1081 2264 
Q 1234 2150 1697 2047 
L 1894 2003 
Q 2506 1872 2764 1633 
Q 3022 1394 3022 966 
Q 3022 478 2636 193 
Q 2250 -91 1575 -91 
Q 1294 -91 989 -36 
Q 684 19 347 128 
L 347 722 
Q 666 556 975 473 
Q 1284 391 1588 391 
Q 1994 391 2212 530 
Q 2431 669 2431 922 
Q 2431 1156 2273 1281 
Q 2116 1406 1581 1522 
L 1381 1569 
Q 847 1681 609 1914 
Q 372 2147 372 2553 
Q 372 3047 722 3315 
Q 1072 3584 1716 3584 
Q 2034 3584 2315 3537 
Q 2597 3491 2834 3397 
z
" transform="scale(0.015625)"/>
       <path id="DejaVuSans-69" d="M 603 3500 
L 1178 3500 
L 1178 0 
L 603 0 
L 603 3500 
z
M 603 4863 
L 1178 4863 
L 1178 4134 
L 603 4134 
L 603 4863 
z
" transform="scale(0.015625)"/>
      </defs>
      <use xlink:href="#DejaVuSans-70"/>
      <use xlink:href="#DejaVuSans-73" transform="translate(63.476562 0)"/>
      <use xlink:href="#DejaVuSans-69" transform="translate(115.576172 0)"/>
     </g>
    </g>
   </g>
   <g id="line2d_31">
    <path d="M 60.013977 276.333222 
L 78.050341 276.24952 
L 78.050341 276.148519 
L 81.32968 276.148519 
L 81.32968 275.943227 
L 84.609019 275.943227 
L 84.609019 275.54379 
L 87.888357 275.54379 
L 87.888357 274.800094 
L 91.167696 274.800094 
L 91.167696 273.475661 
L 94.447035 273.475661 
L 94.447035 271.22076 
L 97.726374 271.22076 
L 97.726374 267.552874 
L 101.005713 267.552874 
L 101.005713 261.857028 
L 104.285052 261.857028 
L 104.285052 253.421118 
L 107.56439 253.421118 
L 107.56439 241.519784 
L 110.843729 241.519784 
L 110.843729 225.552128 
L 114.123068 225.552128 
L 114.123068 205.223111 
L 117.402407 205.223111 
L 117.402407 180.73818 
L 120.681746 180.73818 
L 120.681746 152.961849 
L 123.961085 152.961849 
L 123.961085 123.482104 
L 127.240424 123.482104 
L 127.240424 94.531439 
L 130.519762 94.531439 
L 130.519762 68.744851 
L 133.799101 68.744851 
L 133.799101 48.779834 
L 137.07844 48.779834 
L 137.07844 36.869895 
L 140.357779 36.869895 
L 140.357779 34.414125 
L 143.637118 34.414125 
L 143.637118 41.706902 
L 146.916457 41.706902 
L 146.916457 57.879858 
L 150.195795 57.879858 
L 150.195795 81.071931 
L 153.475134 81.071931 
L 153.475134 108.781474 
L 156.754473 108.781474 
L 156.754473 138.30843 
L 160.033812 138.30843 
L 160.033812 167.179011 
L 163.313151 167.179011 
L 163.313151 193.462905 
L 166.59249 193.462905 
L 166.59249 215.933854 
L 169.871829 215.933854 
L 169.871829 234.072174 
L 173.151167 234.072174 
L 173.151167 247.946066 
L 176.430506 247.946066 
L 176.430506 258.027961 
L 179.709845 258.027961 
L 179.709845 265.001396 
L 182.989184 265.001396 
L 182.989184 269.598976 
L 186.268523 269.598976 
L 186.268523 272.491435 
L 189.547862 272.491435 
L 189.547862 274.229382 
L 192.8272 274.229382 
L 192.8272 275.227404 
L 196.106539 275.227404 
L 196.106539 275.775458 
L 199.385878 275.775458 
L 199.385878 276.063391 
L 202.665217 276.063391 
L 202.665217 276.208172 
L 212.503233 276.310006 
L 212.503233 276.324197 
L 384.668523 276.334125 
L 384.668523 276.334125 
" clip-path="url(#p8731d51228)" style="fill: none; stroke: #808080; stroke-width: 1.5; stroke-linecap: square"/>
   </g>
   <g id="line2d_32">
    <path d="M 60.013977 276.334125 
L 176.430506 276.226574 
L 176.430506 276.101051 
L 179.709845 276.101051 
L 179.709845 275.849229 
L 182.989184 275.849229 
L 182.989184 275.365671 
L 186.268523 275.365671 
L 186.268523 274.477241 
L 189.547862 274.477241 
L 189.547862 272.916172 
L 192.8272 272.916172 
L 192.8272 270.294322 
L 196.106539 270.294322 
L 196.106539 266.088109 
L 199.385878 266.088109 
L 199.385878 259.647721 
L 202.665217 259.647721 
L 202.665217 250.245813 
L 205.944556 250.245813 
L 205.944556 237.177547 
L 209.223895 237.177547 
L 209.223895 219.913359 
L 212.503233 219.913359 
L 212.503233 198.288471 
L 215.782572 198.288471 
L 215.782572 172.692557 
L 219.061911 172.692557 
L 219.061911 144.206164 
L 222.34125 144.206164 
L 222.34125 114.626317 
L 225.620589 114.626317 
L 225.620589 86.338871 
L 228.899928 86.338871 
L 228.899928 62.030253 
L 232.179267 62.030253 
L 232.179267 44.278133 
L 235.458605 44.278133 
L 235.458605 35.104268 
L 238.737944 35.104268 
L 238.737944 35.596022 
L 242.017283 35.596022 
L 242.017283 45.694399 
L 245.296622 45.694399 
L 245.296622 64.205687 
L 248.575961 64.205687 
L 248.575961 89.03352 
L 251.8553 89.03352 
L 251.8553 117.569052 
L 255.134638 117.569052 
L 255.134638 147.138961 
L 258.413977 147.138961 
L 258.413977 175.405803 
L 261.693316 175.405803 
L 261.693316 200.641189 
L 264.972655 200.641189 
L 264.972655 221.837055 
L 268.251994 221.837055 
L 268.251994 238.666655 
L 271.531333 238.666655 
L 271.531333 251.340154 
L 274.810671 251.340154 
L 274.810671 260.412787 
L 278.09001 260.412787 
L 278.09001 266.597703 
L 281.369349 266.597703 
L 281.369349 270.618092 
L 284.648688 270.618092 
L 284.648688 273.11257 
L 287.928027 273.11257 
L 287.928027 274.591067 
L 291.207366 274.591067 
L 291.207366 275.428739 
L 294.486705 275.428739 
L 294.486705 275.882653 
L 297.766043 275.882653 
L 297.766043 276.118001 
L 301.045382 276.118001 
L 301.045382 276.234801 
L 384.668523 276.334125 
L 384.668523 276.334125 
" clip-path="url(#p8731d51228)" style="fill: none; stroke: #000000; stroke-width: 1.5; stroke-linecap: square"/>
   </g>
   <g id="line2d_33">
    <path d="M 60.013977 276.333222 
L 169.871829 276.266777 
L 169.871829 276.197346 
L 173.151167 276.197346 
L 173.151167 276.064101 
L 176.430506 276.064101 
L 176.430506 275.816462 
L 179.709845 275.816462 
L 179.709845 275.37139 
L 182.989184 275.37139 
L 182.989184 274.598679 
L 186.268523 274.598679 
L 186.268523 273.302683 
L 189.547862 273.302683 
L 189.547862 271.201067 
L 192.8272 271.201067 
L 192.8272 267.905571 
L 196.106539 267.905571 
L 196.106539 262.918339 
L 199.385878 262.918339 
L 199.385878 255.662673 
L 202.665217 255.662673 
L 202.665217 245.555031 
L 205.944556 245.555031 
L 205.944556 232.093032 
L 209.223895 232.093032 
L 209.223895 214.914494 
L 212.503233 214.914494 
L 212.503233 193.824754 
L 215.782572 193.824754 
L 215.782572 168.883916 
L 219.061911 168.883916 
L 219.061911 140.6856 
L 222.34125 140.6856 
L 222.34125 110.828674 
L 225.620589 110.828674 
L 225.620589 82.285031 
L 228.899928 82.285031 
L 228.899928 59.108876 
L 232.179267 59.108876 
L 232.179267 45.135193 
L 235.458605 45.135193 
L 235.458605 42.177711 
L 238.737944 42.177711 
L 238.737944 49.225638 
L 242.017283 49.225638 
L 242.017283 64.042313 
L 245.296622 64.042313 
L 245.296622 84.318852 
L 248.575961 84.318852 
L 248.575961 107.833948 
L 251.8553 107.833948 
L 251.8553 132.594257 
L 255.134638 132.594257 
L 255.134638 156.953674 
L 258.413977 156.953674 
L 258.413977 179.680802 
L 261.693316 179.680802 
L 261.693316 199.969086 
L 264.972655 199.969086 
L 264.972655 217.399153 
L 268.251994 217.399153 
L 268.251994 231.869717 
L 271.531333 231.869717 
L 271.531333 243.514308 
L 274.810671 243.514308 
L 274.810671 252.618372 
L 278.09001 252.618372 
L 278.09001 259.546772 
L 281.369349 259.546772 
L 281.369349 264.687027 
L 284.648688 264.687027 
L 284.648688 268.409655 
L 287.928027 268.409655 
L 287.928027 271.044193 
L 291.207366 271.044193 
L 291.207366 272.86793 
L 294.486705 272.86793 
L 294.486705 274.103831 
L 297.766043 274.103831 
L 297.766043 274.924354 
L 301.045382 274.924354 
L 301.045382 275.458389 
L 304.324721 275.458389 
L 304.324721 275.799329 
L 307.60406 275.799329 
L 307.60406 276.012954 
L 310.883399 276.012954 
L 310.883399 276.144387 
L 317.442076 276.223827 
L 317.442076 276.271015 
L 384.668523 276.334125 
L 384.668523 276.334125 
" clip-path="url(#p8731d51228)" style="fill: none; stroke: #1f77b4; stroke-width: 1.5; stroke-linecap: square"/>
   </g>
   <g id="line2d_34">
    <path d="M 60.013977 276.333222 
L 179.709845 276.231498 
L 179.709845 276.096763 
L 182.989184 276.096763 
L 182.989184 275.807413 
L 186.268523 275.807413 
L 186.268523 275.214695 
L 189.547862 275.214695 
L 189.547862 274.059302 
L 192.8272 274.059302 
L 192.8272 271.921457 
L 196.106539 271.921457 
L 196.106539 268.176756 
L 199.385878 268.176756 
L 199.385878 261.985483 
L 202.665217 261.985483 
L 202.665217 252.353875 
L 205.944556 252.353875 
L 205.944556 238.300824 
L 209.223895 238.300824 
L 209.223895 219.131667 
L 212.503233 219.131667 
L 212.503233 194.765746 
L 215.782572 194.765746 
L 215.782572 166.011785 
L 219.061911 166.011785 
L 219.061911 134.66984 
L 222.34125 134.66984 
L 222.34125 103.380083 
L 225.620589 103.380083 
L 225.620589 75.224119 
L 228.899928 75.224119 
L 228.899928 53.175113 
L 232.179267 53.175113 
L 232.179267 39.547323 
L 235.458605 39.547323 
L 235.458605 35.592572 
L 238.737944 35.592572 
L 238.737944 41.337112 
L 242.017283 41.337112 
L 242.017283 55.673379 
L 245.296622 55.673379 
L 245.296622 76.655682 
L 248.575961 76.655682 
L 248.575961 101.902619 
L 251.8553 101.902619 
L 251.8553 129.000805 
L 255.134638 129.000805 
L 255.134638 155.829221 
L 258.413977 155.829221 
L 258.413977 180.761348 
L 261.693316 180.761348 
L 261.693316 202.740052 
L 264.972655 202.740052 
L 264.972655 221.247963 
L 268.251994 221.247963 
L 268.251994 236.209881 
L 271.531333 236.209881 
L 271.531333 247.86498 
L 274.810671 247.86498 
L 274.810671 256.639319 
L 278.09001 256.639319 
L 278.09001 263.038276 
L 281.369349 263.038276 
L 281.369349 267.567785 
L 284.648688 267.567785 
L 284.648688 270.68495 
L 287.928027 270.68495 
L 287.928027 272.773544 
L 291.207366 272.773544 
L 291.207366 274.137731 
L 294.486705 274.137731 
L 294.486705 275.007282 
L 297.766043 275.007282 
L 297.766043 275.548711 
L 301.045382 275.548711 
L 301.045382 275.878317 
L 304.324721 275.878317 
L 304.324721 276.074654 
L 307.60406 276.074654 
L 307.60406 276.189172 
L 317.442076 276.291292 
L 317.442076 276.31145 
L 384.668523 276.334125 
L 384.668523 276.334125 
" clip-path="url(#p8731d51228)" style="fill: none; stroke: #ff7f0e; stroke-width: 1.5; stroke-linecap: square"/>
   </g>
   <g id="line2d_35">
    <path d="M 60.013977 276.333222 
L 182.989184 276.255287 
L 182.989184 276.113637 
L 186.268523 276.113637 
L 186.268523 275.752796 
L 189.547862 275.752796 
L 189.547862 274.907503 
L 192.8272 274.907503 
L 192.8272 273.103177 
L 196.106539 273.103177 
L 196.106539 269.604085 
L 199.385878 269.604085 
L 199.385878 263.43141 
L 202.665217 263.43141 
L 202.665217 253.490121 
L 205.944556 253.490121 
L 205.944556 238.806436 
L 209.223895 238.806436 
L 209.223895 218.829515 
L 212.503233 218.829515 
L 212.503233 193.715061 
L 215.782572 193.715061 
L 215.782572 164.500275 
L 219.061911 164.500275 
L 219.061911 133.101833 
L 222.34125 133.101833 
L 222.34125 102.113958 
L 225.620589 102.113958 
L 225.620589 74.437784 
L 228.899928 74.437784 
L 228.899928 52.81968 
L 232.179267 52.81968 
L 232.179267 39.401107 
L 235.458605 39.401107 
L 235.458605 35.379245 
L 238.737944 35.379245 
L 238.737944 40.847678 
L 242.017283 40.847678 
L 242.017283 54.839995 
L 245.296622 54.839995 
L 245.296622 75.557635 
L 248.575961 75.557635 
L 248.575961 100.718398 
L 251.8553 100.718398 
L 251.8553 127.936709 
L 255.134638 127.936709 
L 255.134638 155.054691 
L 258.413977 155.054691 
L 258.413977 180.370107 
L 261.693316 180.370107 
L 261.693316 202.741829 
L 264.972655 202.741829 
L 264.972655 221.584315 
L 268.251994 221.584315 
L 268.251994 236.782396 
L 271.531333 236.782396 
L 271.531333 248.564461 
L 274.810671 248.564461 
L 274.810671 257.368298 
L 278.09001 257.368298 
L 278.09001 263.723775 
L 281.369349 263.723775 
L 281.369349 268.164919 
L 284.648688 268.164919 
L 284.648688 271.174023 
L 287.928027 271.174023 
L 287.928027 273.153762 
L 291.207366 273.153762 
L 291.207366 274.420153 
L 294.486705 274.420153 
L 294.486705 275.208687 
L 297.766043 275.208687 
L 297.766043 275.687118 
L 301.045382 275.687118 
L 301.045382 275.970244 
L 304.324721 275.970244 
L 304.324721 276.133806 
L 310.883399 276.226122 
L 310.883399 276.277065 
L 384.668523 276.334125 
L 384.668523 276.334125 
" clip-path="url(#p8731d51228)" style="fill: none; stroke: #2ca02c; stroke-width: 1.5; stroke-linecap: square"/>
   </g>
   <g id="line2d_36">
    <path d="M 60.013977 276.333222 
L 186.268523 276.235323 
L 186.268523 275.966601 
L 189.547862 275.966601 
L 189.547862 275.210471 
L 192.8272 275.210471 
L 192.8272 273.449393 
L 196.106539 273.449393 
L 196.106539 269.915499 
L 199.385878 269.915499 
L 199.385878 263.627631 
L 202.665217 263.627631 
L 202.665217 253.521328 
L 205.944556 253.521328 
L 205.944556 238.671828 
L 209.223895 238.671828 
L 209.223895 218.573099 
L 212.503233 218.573099 
L 212.503233 193.404053 
L 215.782572 193.404053 
L 215.782572 164.199404 
L 219.061911 164.199404 
L 219.061911 132.855728 
L 222.34125 132.855728 
L 222.34125 101.942281 
L 225.620589 101.942281 
L 225.620589 74.339859 
L 228.899928 74.339859 
L 228.899928 52.781765 
L 232.179267 52.781765 
L 232.179267 39.401284 
L 235.458605 39.401284 
L 235.458605 35.389609 
L 238.737944 35.389609 
L 238.737944 40.837502 
L 242.017283 40.837502 
L 242.017283 54.783284 
L 245.296622 54.783284 
L 245.296622 75.442458 
L 248.575961 75.442458 
L 248.575961 100.551954 
L 251.8553 100.551954 
L 251.8553 127.743162 
L 255.134638 127.743162 
L 255.134638 154.867078 
L 258.413977 154.867078 
L 258.413977 180.220111 
L 261.693316 180.220111 
L 261.693316 202.651405 
L 264.972655 202.651405 
L 264.972655 221.561607 
L 268.251994 221.561607 
L 268.251994 236.822272 
L 271.531333 236.822272 
L 271.531333 248.652355 
L 274.810671 248.652355 
L 274.810671 257.485362 
L 278.09001 257.485362 
L 278.09001 263.851575 
L 281.369349 263.851575 
L 281.369349 268.288616 
L 284.648688 268.288616 
L 284.648688 271.283769 
L 287.928027 271.283769 
L 287.928027 273.244625 
L 291.207366 273.244625 
L 291.207366 274.491134 
L 294.486705 274.491134 
L 294.486705 275.261397 
L 297.766043 275.261397 
L 297.766043 275.724529 
L 301.045382 275.724529 
L 301.045382 275.995726 
L 304.324721 275.995726 
L 304.324721 276.150518 
L 310.883399 276.236704 
L 310.883399 276.283548 
L 384.668523 276.334125 
L 384.668523 276.334125 
" clip-path="url(#p8731d51228)" style="fill: none; stroke: #d62728; stroke-width: 1.5; stroke-linecap: square"/>
   </g>
   <g id="line2d_37">
    <path d="M 60.013977 276.333222 
L 186.268523 276.294392 
L 186.268523 276.061205 
L 189.547862 276.061205 
L 189.547862 275.30868 
L 192.8272 275.30868 
L 192.8272 273.526311 
L 196.106539 273.526311 
L 196.106539 269.955127 
L 199.385878 269.955127 
L 199.385878 263.623677 
L 202.665217 263.623677 
L 202.665217 253.47867 
L 205.944556 253.47867 
L 205.944556 238.604259 
L 209.223895 238.604259 
L 209.223895 218.497793 
L 212.503233 218.497793 
L 212.503233 193.335526 
L 215.782572 193.335526 
L 215.782572 164.145787 
L 219.061911 164.145787 
L 219.061911 132.818547 
L 222.34125 132.818547 
L 222.34125 101.918922 
L 225.620589 101.918922 
L 225.620589 74.326678 
L 228.899928 74.326678 
L 228.899928 52.775983 
L 232.179267 52.775983 
L 232.179267 39.401018 
L 235.458605 39.401018 
L 235.458605 35.392752 
L 238.737944 35.392752 
L 238.737944 40.840747 
L 242.017283 40.840747 
L 242.017283 54.782268 
L 245.296622 54.782268 
L 245.296622 75.433061 
L 248.575961 75.433061 
L 248.575961 100.531993 
L 251.8553 100.531993 
L 251.8553 127.713525 
L 255.134638 127.713525 
L 255.134638 154.831689 
L 258.413977 154.831689 
L 258.413977 180.184774 
L 261.693316 180.184774 
L 261.693316 202.622064 
L 264.972655 202.622064 
L 264.972655 221.542742 
L 268.251994 221.542742 
L 268.251994 236.815945 
L 271.531333 236.815945 
L 271.531333 248.6581 
L 274.810671 248.6581 
L 274.810671 257.500758 
L 278.09001 257.500758 
L 278.09001 263.873169 
L 281.369349 263.873169 
L 281.369349 268.312846 
L 284.648688 268.312846 
L 284.648688 271.307644 
L 287.928027 271.307644 
L 287.928027 273.266073 
L 291.207366 273.266073 
L 291.207366 274.509047 
L 294.486705 274.509047 
L 294.486705 275.275469 
L 297.766043 275.275469 
L 297.766043 275.735008 
L 301.045382 275.735008 
L 301.045382 276.003168 
L 304.324721 276.003168 
L 304.324721 276.155578 
L 310.883399 276.240008 
L 310.883399 276.285628 
L 384.668523 276.334125 
L 384.668523 276.334125 
" clip-path="url(#p8731d51228)" style="fill: none; stroke: #9467bd; stroke-width: 1.5; stroke-linecap: square"/>
   </g>
   <g id="line2d_38">
    <path d="M 60.013977 276.333222 
L 186.268523 276.31884 
L 186.268523 276.108668 
L 189.547862 276.108668 
L 189.547862 275.337396 
L 192.8272 275.337396 
L 192.8272 273.536549 
L 196.106539 273.536549 
L 196.106539 269.951562 
L 199.385878 269.951562 
L 199.385878 263.60983 
L 202.665217 263.60983 
L 202.665217 253.458857 
L 205.944556 253.458857 
L 205.944556 238.583119 
L 209.223895 238.583119 
L 209.223895 218.479056 
L 212.503233 218.479056 
L 212.503233 193.321208 
L 215.782572 193.321208 
L 215.782572 164.136158 
L 219.061911 164.136158 
L 219.061911 132.812714 
L 222.34125 132.812714 
L 222.34125 101.915609 
L 225.620589 101.915609 
L 225.620589 74.32483 
L 228.899928 74.32483 
L 228.899928 52.77502 
L 232.179267 52.77502 
L 232.179267 39.400755 
L 235.458605 39.400755 
L 235.458605 35.393126 
L 238.737944 35.393126 
L 238.737944 40.841533 
L 242.017283 40.841533 
L 242.017283 54.782922 
L 245.296622 54.782922 
L 245.296622 75.432789 
L 248.575961 75.432789 
L 248.575961 100.530024 
L 251.8553 100.530024 
L 251.8553 127.709443 
L 255.134638 127.709443 
L 255.134638 154.825667 
L 258.413977 154.825667 
L 258.413977 180.177579 
L 261.693316 180.177579 
L 261.693316 202.614852 
L 264.972655 202.614852 
L 264.972655 221.536714 
L 268.251994 221.536714 
L 268.251994 236.812025 
L 271.531333 236.812025 
L 271.531333 248.656734 
L 274.810671 248.656734 
L 274.810671 257.501876 
L 278.09001 257.501876 
L 278.09001 263.876296 
L 281.369349 263.876296 
L 281.369349 268.31728 
L 284.648688 268.31728 
L 284.648688 271.312651 
L 287.928027 271.312651 
L 287.928027 273.271027 
L 291.207366 273.271027 
L 291.207366 274.51351 
L 294.486705 274.51351 
L 294.486705 275.279203 
L 297.766043 275.279203 
L 297.766043 275.737944 
L 301.045382 275.737944 
L 301.045382 276.005353 
L 304.324721 276.005353 
L 304.324721 276.157127 
L 310.883399 276.241059 
L 310.883399 276.286312 
L 384.668523 276.334125 
L 384.668523 276.334125 
" clip-path="url(#p8731d51228)" style="fill: none; stroke: #8c564b; stroke-width: 1.5; stroke-linecap: square"/>
   </g>
   <g id="line2d_39">
    <path d="M 60.013977 276.333222 
L 186.268523 276.326918 
L 186.268523 276.131718 
L 189.547862 276.131718 
L 189.547862 275.344021 
L 192.8272 275.344021 
L 192.8272 273.534706 
L 196.106539 273.534706 
L 196.106539 269.946257 
L 199.385878 269.946257 
L 199.385878 263.603031 
L 202.665217 263.603031 
L 202.665217 253.451977 
L 205.944556 253.451977 
L 205.944556 238.577186 
L 209.223895 238.577186 
L 209.223895 218.474582 
L 212.503233 218.474582 
L 212.503233 193.318217 
L 215.782572 193.318217 
L 215.782572 164.134369 
L 219.061911 164.134369 
L 219.061911 132.811743 
L 222.34125 132.811743 
L 222.34125 101.915111 
L 225.620589 101.915111 
L 225.620589 74.324565 
L 228.899928 74.324565 
L 228.899928 52.774864 
L 232.179267 52.774864 
L 232.179267 39.400674 
L 235.458605 39.400674 
L 235.458605 35.393138 
L 238.737944 35.393138 
L 238.737944 40.841649 
L 242.017283 40.841649 
L 242.017283 54.783099 
L 245.296622 54.783099 
L 245.296622 75.432913 
L 248.575961 75.432913 
L 248.575961 100.529924 
L 251.8553 100.529924 
L 251.8553 127.708961 
L 255.134638 127.708961 
L 255.134638 154.824722 
L 258.413977 154.824722 
L 258.413977 180.17622 
L 261.693316 180.17622 
L 261.693316 202.613254 
L 264.972655 202.613254 
L 264.972655 221.535133 
L 268.251994 221.535133 
L 268.251994 236.810722 
L 271.531333 236.810722 
L 271.531333 248.655906 
L 274.810671 248.655906 
L 274.810671 257.501615 
L 278.09001 257.501615 
L 278.09001 263.876581 
L 281.369349 263.876581 
L 281.369349 268.318002 
L 284.648688 268.318002 
L 284.648688 271.313652 
L 287.928027 271.313652 
L 287.928027 273.272146 
L 291.207366 273.272146 
L 291.207366 274.514609 
L 294.486705 274.514609 
L 294.486705 275.280188 
L 297.766043 275.280188 
L 297.766043 275.738764 
L 301.045382 275.738764 
L 301.045382 276.005995 
L 304.324721 276.005995 
L 304.324721 276.157603 
L 310.883399 276.241395 
L 310.883399 276.286539 
L 384.668523 276.334125 
L 384.668523 276.334125 
" clip-path="url(#p8731d51228)" style="fill: none; stroke: #e377c2; stroke-width: 1.5; stroke-linecap: square"/>
   </g>
   <g id="line2d_40">
    <path d="M 60.013977 276.333222 
L 186.268523 276.330098 
L 186.268523 276.142794 
L 189.547862 276.142794 
L 189.547862 275.344131 
L 192.8272 275.344131 
L 192.8272 273.532102 
L 196.106539 273.532102 
L 196.106539 269.943346 
L 199.385878 269.943346 
L 199.385878 263.600346 
L 202.665217 263.600346 
L 202.665217 253.449774 
L 205.944556 253.449774 
L 205.944556 238.57557 
L 209.223895 238.57557 
L 209.223895 218.473516 
L 212.503233 218.473516 
L 212.503233 193.317581 
L 215.782572 193.317581 
L 215.782572 164.134023 
L 219.061911 164.134023 
L 219.061911 132.81157 
L 222.34125 132.81157 
L 222.34125 101.91503 
L 225.620589 101.91503 
L 225.620589 74.324526 
L 228.899928 74.324526 
L 228.899928 52.77484 
L 232.179267 52.77484 
L 232.179267 39.400657 
L 235.458605 39.400657 
L 235.458605 35.393129 
L 238.737944 35.393129 
L 238.737944 40.841659 
L 242.017283 40.841659 
L 242.017283 54.783131 
L 245.296622 54.783131 
L 245.296622 75.432954 
L 248.575961 75.432954 
L 248.575961 100.529946 
L 251.8553 100.529946 
L 251.8553 127.708923 
L 255.134638 127.708923 
L 255.134638 154.82459 
L 258.413977 154.82459 
L 258.413977 180.17598 
L 261.693316 180.17598 
L 261.693316 202.612921 
L 264.972655 202.612921 
L 264.972655 221.534752 
L 268.251994 221.534752 
L 268.251994 236.810355 
L 271.531333 236.810355 
L 271.531333 248.655612 
L 274.810671 248.655612 
L 274.810671 257.501439 
L 278.09001 257.501439 
L 278.09001 263.876539 
L 281.369349 263.876539 
L 281.369349 268.318086 
L 284.648688 268.318086 
L 284.648688 271.313836 
L 287.928027 271.313836 
L 287.928027 273.27239 
L 291.207366 273.27239 
L 291.207366 274.514876 
L 294.486705 274.514876 
L 294.486705 275.280446 
L 297.766043 275.280446 
L 297.766043 275.738993 
L 301.045382 275.738993 
L 301.045382 276.006184 
L 304.324721 276.006184 
L 304.324721 276.15775 
L 310.883399 276.241503 
L 310.883399 276.286614 
L 384.668523 276.334125 
L 384.668523 276.334125 
" clip-path="url(#p8731d51228)" style="fill: none; stroke: #7f7f7f; stroke-width: 1.5; stroke-linecap: square"/>
   </g>
   <g id="line2d_41">
    <path d="M 60.013977 276.333222 
L 186.268523 276.331626 
L 186.268523 276.148351 
L 189.547862 276.148351 
L 189.547862 275.34278 
L 192.8272 275.34278 
L 192.8272 273.530362 
L 196.106539 273.530362 
L 196.106539 269.941995 
L 199.385878 269.941995 
L 199.385878 263.599351 
L 202.665217 263.599351 
L 202.665217 253.449085 
L 205.944556 253.449085 
L 205.944556 238.57513 
L 209.223895 238.57513 
L 209.223895 218.473258 
L 212.503233 218.473258 
L 212.503233 193.317442 
L 215.782572 193.317442 
L 215.782572 164.133953 
L 219.061911 164.133953 
L 219.061911 132.811537 
L 222.34125 132.811537 
L 222.34125 101.915015 
L 225.620589 101.915015 
L 225.620589 74.32452 
L 228.899928 74.32452 
L 228.899928 52.774837 
L 232.179267 52.774837 
L 232.179267 39.400654 
L 235.458605 39.400654 
L 235.458605 35.393126 
L 238.737944 35.393126 
L 238.737944 40.841658 
L 242.017283 40.841658 
L 242.017283 54.783135 
L 245.296622 54.783135 
L 245.296622 75.432962 
L 248.575961 75.432962 
L 248.575961 100.529955 
L 251.8553 100.529955 
L 251.8553 127.708926 
L 255.134638 127.708926 
L 255.134638 154.824576 
L 258.413977 154.824576 
L 258.413977 180.175941 
L 261.693316 180.175941 
L 261.693316 202.612856 
L 264.972655 202.612856 
L 264.972655 221.534665 
L 268.251994 221.534665 
L 268.251994 236.810259 
L 271.531333 236.810259 
L 271.531333 248.655523 
L 274.810671 248.655523 
L 274.810671 257.501371 
L 278.09001 257.501371 
L 278.09001 263.876501 
L 281.369349 263.876501 
L 281.369349 268.318083 
L 284.648688 268.318083 
L 284.648688 271.313863 
L 287.928027 271.313863 
L 287.928027 273.272441 
L 291.207366 273.272441 
L 291.207366 274.51494 
L 294.486705 274.51494 
L 294.486705 275.280514 
L 297.766043 275.280514 
L 297.766043 275.739057 
L 301.045382 275.739057 
L 301.045382 276.006239 
L 304.324721 276.006239 
L 304.324721 276.157795 
L 310.883399 276.241538 
L 310.883399 276.286639 
L 384.668523 276.334125 
L 384.668523 276.334125 
" clip-path="url(#p8731d51228)" style="fill: none; stroke: #bcbd22; stroke-width: 1.5; stroke-linecap: square"/>
   </g>
   <g id="line2d_42">
    <path d="M 60.013977 276.333222 
L 186.268523 276.332471 
L 186.268523 276.151317 
L 189.547862 276.151317 
L 189.547862 275.341407 
L 192.8272 275.341407 
L 192.8272 273.529346 
L 196.106539 273.529346 
L 196.106539 269.941393 
L 199.385878 269.941393 
L 199.385878 263.598987 
L 202.665217 263.598987 
L 202.665217 253.448869 
L 205.944556 253.448869 
L 205.944556 238.575008 
L 209.223895 238.575008 
L 209.223895 218.473194 
L 212.503233 218.473194 
L 212.503233 193.31741 
L 215.782572 193.31741 
L 215.782572 164.133938 
L 219.061911 164.133938 
L 219.061911 132.811531 
L 222.34125 132.811531 
L 222.34125 101.915012 
L 225.620589 101.915012 
L 225.620589 74.324519 
L 228.899928 74.324519 
L 228.899928 52.774836 
L 232.179267 52.774836 
L 232.179267 39.400653 
L 235.458605 39.400653 
L 235.458605 35.393126 
L 238.737944 35.393126 
L 238.737944 40.841657 
L 242.017283 40.841657 
L 242.017283 54.783135 
L 245.296622 54.783135 
L 245.296622 75.432964 
L 248.575961 75.432964 
L 248.575961 100.529958 
L 251.8553 100.529958 
L 251.8553 127.708928 
L 255.134638 127.708928 
L 255.134638 154.824575 
L 258.413977 154.824575 
L 258.413977 180.175935 
L 261.693316 180.175935 
L 261.693316 202.612843 
L 264.972655 202.612843 
L 264.972655 221.534646 
L 268.251994 221.534646 
L 268.251994 236.810235 
L 271.531333 236.810235 
L 271.531333 248.655497 
L 274.810671 248.655497 
L 274.810671 257.501348 
L 278.09001 257.501348 
L 278.09001 263.876485 
L 281.369349 263.876485 
L 281.369349 268.318075 
L 284.648688 268.318075 
L 284.648688 271.313864 
L 287.928027 271.313864 
L 287.928027 273.27245 
L 291.207366 273.27245 
L 291.207366 274.514954 
L 294.486705 274.514954 
L 294.486705 275.280531 
L 297.766043 275.280531 
L 297.766043 275.739075 
L 301.045382 275.739075 
L 301.045382 276.006256 
L 304.324721 276.006256 
L 304.324721 276.157809 
L 310.883399 276.241549 
L 310.883399 276.286648 
L 384.668523 276.334125 
L 384.668523 276.334125 
" clip-path="url(#p8731d51228)" style="fill: none; stroke: #17becf; stroke-width: 1.5; stroke-linecap: square"/>
   </g>
   <g id="line2d_43">
    <path d="M 60.013977 276.333222 
L 150.195795 276.251396 
L 150.195795 276.187961 
L 156.754473 276.081638 
L 156.754473 275.907958 
L 160.033812 275.907958 
L 160.033812 275.63141 
L 163.313151 275.63141 
L 163.313151 275.202126 
L 166.59249 275.202126 
L 166.59249 274.552426 
L 169.871829 274.552426 
L 169.871829 273.593693 
L 173.151167 273.593693 
L 173.151167 272.214232 
L 176.430506 272.214232 
L 176.430506 270.278969 
L 179.709845 270.278969 
L 179.709845 267.63191 
L 182.989184 267.63191 
L 182.989184 264.102269 
L 186.268523 264.102269 
L 186.268523 259.514903 
L 189.547862 259.514903 
L 189.547862 253.705256 
L 192.8272 253.705256 
L 192.8272 246.538333 
L 196.106539 246.538333 
L 196.106539 237.93042 
L 199.385878 237.93042 
L 199.385878 227.871437 
L 202.665217 227.871437 
L 202.665217 216.445095 
L 205.944556 216.445095 
L 205.944556 203.84368 
L 209.223895 203.84368 
L 209.223895 190.374333 
L 212.503233 190.374333 
L 212.503233 176.454361 
L 215.782572 176.454361 
L 215.782572 162.594252 
L 219.061911 162.594252 
L 219.061911 149.368651 
L 222.34125 149.368651 
L 222.34125 137.377317 
L 225.620589 137.377317 
L 225.620589 127.199667 
L 228.899928 127.199667 
L 228.899928 119.347782 
L 232.179267 119.347782 
L 232.179267 114.223225 
L 235.458605 114.223225 
L 235.458605 112.08281 
L 238.737944 112.08281 
L 238.737944 113.017408 
L 242.017283 113.017408 
L 242.017283 116.946176 
L 245.296622 116.946176 
L 245.296622 123.626637 
L 248.575961 123.626637 
L 248.575961 132.678975 
L 251.8553 132.678975 
L 251.8553 143.621225 
L 255.134638 143.621225 
L 255.134638 155.910897 
L 258.413977 155.910897 
L 258.413977 168.988153 
L 261.693316 168.988153 
L 261.693316 182.315942 
L 264.972655 182.315942 
L 264.972655 195.413378 
L 268.251994 195.413378 
L 268.251994 207.879904 
L 271.531333 207.879904 
L 271.531333 219.409211 
L 274.810671 219.409211 
L 274.810671 229.79321 
L 278.09001 229.79321 
L 278.09001 238.917424 
L 281.369349 238.917424 
L 281.369349 246.749852 
L 284.648688 246.749852 
L 284.648688 253.325693 
L 287.928027 253.325693 
L 287.928027 258.730225 
L 291.207366 258.730225 
L 291.207366 263.081843 
L 294.486705 263.081843 
L 294.486705 266.516745 
L 297.766043 266.516745 
L 297.766043 269.176217 
L 301.045382 269.176217 
L 301.045382 271.196956 
L 304.324721 271.196956 
L 304.324721 272.704435 
L 307.60406 272.704435 
L 307.60406 273.808998 
L 310.883399 273.808998 
L 310.883399 274.604214 
L 314.162738 274.604214 
L 314.162738 275.166913 
L 317.442076 275.166913 
L 317.442076 275.558381 
L 320.721415 275.558381 
L 320.721415 275.826215 
L 324.000754 275.826215 
L 324.000754 276.006474 
L 327.280093 276.006474 
L 327.280093 276.125846 
L 333.838771 276.203644 
L 333.838771 276.253557 
L 384.668523 276.334125 
L 384.668523 276.334125 
" clip-path="url(#p8731d51228)" style="fill: none; stroke: #ff0000; stroke-width: 1.5; stroke-linecap: square"/>
   </g>
   <g id="patch_3">
    <path d="M 43.78125 288.430125 
L 43.78125 22.318125 
" style="fill: none; stroke: #000000; stroke-width: 0.8; stroke-linejoin: miter; stroke-linecap: square"/>
   </g>
   <g id="patch_4">
    <path d="M 400.90125 288.430125 
L 400.90125 22.318125 
" style="fill: none; stroke: #000000; stroke-width: 0.8; stroke-linejoin: miter; stroke-linecap: square"/>
   </g>
   <g id="patch_5">
    <path d="M 43.78125 288.430125 
L 400.90125 288.430125 
" style="fill: none; stroke: #000000; stroke-width: 0.8; stroke-linejoin: miter; stroke-linecap: square"/>
   </g>
   <g id="patch_6">
    <path d="M 43.78125 22.318125 
L 400.90125 22.318125 
" style="fill: none; stroke: #000000; stroke-width: 0.8; stroke-linejoin: miter; stroke-linecap: square"/>
   </g>
   <g id="text_18">
    <!-- MPDATA with different number of corrections -->
    <g transform="translate(87.781875 16.318125) scale(0.12 -0.12)">
     <defs>
      <path id="DejaVuSans-4d" d="M 628 4666 
L 1569 4666 
L 2759 1491 
L 3956 4666 
L 4897 4666 
L 4897 0 
L 4281 0 
L 4281 4097 
L 3078 897 
L 2444 897 
L 1241 4097 
L 1241 0 
L 628 0 
L 628 4666 
z
" transform="scale(0.015625)"/>
      <path id="DejaVuSans-50" d="M 1259 4147 
L 1259 2394 
L 2053 2394 
Q 2494 2394 2734 2622 
Q 2975 2850 2975 3272 
Q 2975 3691 2734 3919 
Q 2494 4147 2053 4147 
L 1259 4147 
z
M 628 4666 
L 2053 4666 
Q 2838 4666 3239 4311 
Q 3641 3956 3641 3272 
Q 3641 2581 3239 2228 
Q 2838 1875 2053 1875 
L 1259 1875 
L 1259 0 
L 628 0 
L 628 4666 
z
" transform="scale(0.015625)"/>
      <path id="DejaVuSans-44" d="M 1259 4147 
L 1259 519 
L 2022 519 
Q 2988 519 3436 956 
Q 3884 1394 3884 2338 
Q 3884 3275 3436 3711 
Q 2988 4147 2022 4147 
L 1259 4147 
z
M 628 4666 
L 1925 4666 
Q 3281 4666 3915 4102 
Q 4550 3538 4550 2338 
Q 4550 1131 3912 565 
Q 3275 0 1925 0 
L 628 0 
L 628 4666 
z
" transform="scale(0.015625)"/>
      <path id="DejaVuSans-41" d="M 2188 4044 
L 1331 1722 
L 3047 1722 
L 2188 4044 
z
M 1831 4666 
L 2547 4666 
L 4325 0 
L 3669 0 
L 3244 1197 
L 1141 1197 
L 716 0 
L 50 0 
L 1831 4666 
z
" transform="scale(0.015625)"/>
      <path id="DejaVuSans-54" d="M -19 4666 
L 3928 4666 
L 3928 4134 
L 2272 4134 
L 2272 0 
L 1638 0 
L 1638 4134 
L -19 4134 
L -19 4666 
z
" transform="scale(0.015625)"/>
      <path id="DejaVuSans-20" transform="scale(0.015625)"/>
      <path id="DejaVuSans-77" d="M 269 3500 
L 844 3500 
L 1563 769 
L 2278 3500 
L 2956 3500 
L 3675 769 
L 4391 3500 
L 4966 3500 
L 4050 0 
L 3372 0 
L 2619 2869 
L 1863 0 
L 1184 0 
L 269 3500 
z
" transform="scale(0.015625)"/>
      <path id="DejaVuSans-74" d="M 1172 4494 
L 1172 3500 
L 2356 3500 
L 2356 3053 
L 1172 3053 
L 1172 1153 
Q 1172 725 1289 603 
Q 1406 481 1766 481 
L 2356 481 
L 2356 0 
L 1766 0 
Q 1100 0 847 248 
Q 594 497 594 1153 
L 594 3053 
L 172 3053 
L 172 3500 
L 594 3500 
L 594 4494 
L 1172 4494 
z
" transform="scale(0.015625)"/>
      <path id="DejaVuSans-68" d="M 3513 2113 
L 3513 0 
L 2938 0 
L 2938 2094 
Q 2938 2591 2744 2837 
Q 2550 3084 2163 3084 
Q 1697 3084 1428 2787 
Q 1159 2491 1159 1978 
L 1159 0 
L 581 0 
L 581 4863 
L 1159 4863 
L 1159 2956 
Q 1366 3272 1645 3428 
Q 1925 3584 2291 3584 
Q 2894 3584 3203 3211 
Q 3513 2838 3513 2113 
z
" transform="scale(0.015625)"/>
      <path id="DejaVuSans-64" d="M 2906 2969 
L 2906 4863 
L 3481 4863 
L 3481 0 
L 2906 0 
L 2906 525 
Q 2725 213 2448 61 
Q 2172 -91 1784 -91 
Q 1150 -91 751 415 
Q 353 922 353 1747 
Q 353 2572 751 3078 
Q 1150 3584 1784 3584 
Q 2172 3584 2448 3432 
Q 2725 3281 2906 2969 
z
M 947 1747 
Q 947 1113 1208 752 
Q 1469 391 1925 391 
Q 2381 391 2643 752 
Q 2906 1113 2906 1747 
Q 2906 2381 2643 2742 
Q 2381 3103 1925 3103 
Q 1469 3103 1208 2742 
Q 947 2381 947 1747 
z
" transform="scale(0.015625)"/>
      <path id="DejaVuSans-66" d="M 2375 4863 
L 2375 4384 
L 1825 4384 
Q 1516 4384 1395 4259 
Q 1275 4134 1275 3809 
L 1275 3500 
L 2222 3500 
L 2222 3053 
L 1275 3053 
L 1275 0 
L 697 0 
L 697 3053 
L 147 3053 
L 147 3500 
L 697 3500 
L 697 3744 
Q 697 4328 969 4595 
Q 1241 4863 1831 4863 
L 2375 4863 
z
" transform="scale(0.015625)"/>
      <path id="DejaVuSans-65" d="M 3597 1894 
L 3597 1613 
L 953 1613 
Q 991 1019 1311 708 
Q 1631 397 2203 397 
Q 2534 397 2845 478 
Q 3156 559 3463 722 
L 3463 178 
Q 3153 47 2828 -22 
Q 2503 -91 2169 -91 
Q 1331 -91 842 396 
Q 353 884 353 1716 
Q 353 2575 817 3079 
Q 1281 3584 2069 3584 
Q 2775 3584 3186 3129 
Q 3597 2675 3597 1894 
z
M 3022 2063 
Q 3016 2534 2758 2815 
Q 2500 3097 2075 3097 
Q 1594 3097 1305 2825 
Q 1016 2553 972 2059 
L 3022 2063 
z
" transform="scale(0.015625)"/>
      <path id="DejaVuSans-72" d="M 2631 2963 
Q 2534 3019 2420 3045 
Q 2306 3072 2169 3072 
Q 1681 3072 1420 2755 
Q 1159 2438 1159 1844 
L 1159 0 
L 581 0 
L 581 3500 
L 1159 3500 
L 1159 2956 
Q 1341 3275 1631 3429 
Q 1922 3584 2338 3584 
Q 2397 3584 2469 3576 
Q 2541 3569 2628 3553 
L 2631 2963 
z
" transform="scale(0.015625)"/>
      <path id="DejaVuSans-6e" d="M 3513 2113 
L 3513 0 
L 2938 0 
L 2938 2094 
Q 2938 2591 2744 2837 
Q 2550 3084 2163 3084 
Q 1697 3084 1428 2787 
Q 1159 2491 1159 1978 
L 1159 0 
L 581 0 
L 581 3500 
L 1159 3500 
L 1159 2956 
Q 1366 3272 1645 3428 
Q 1925 3584 2291 3584 
Q 2894 3584 3203 3211 
Q 3513 2838 3513 2113 
z
" transform="scale(0.015625)"/>
      <path id="DejaVuSans-75" d="M 544 1381 
L 544 3500 
L 1119 3500 
L 1119 1403 
Q 1119 906 1312 657 
Q 1506 409 1894 409 
Q 2359 409 2629 706 
Q 2900 1003 2900 1516 
L 2900 3500 
L 3475 3500 
L 3475 0 
L 2900 0 
L 2900 538 
Q 2691 219 2414 64 
Q 2138 -91 1772 -91 
Q 1169 -91 856 284 
Q 544 659 544 1381 
z
M 1991 3584 
L 1991 3584 
z
" transform="scale(0.015625)"/>
      <path id="DejaVuSans-6d" d="M 3328 2828 
Q 3544 3216 3844 3400 
Q 4144 3584 4550 3584 
Q 5097 3584 5394 3201 
Q 5691 2819 5691 2113 
L 5691 0 
L 5113 0 
L 5113 2094 
Q 5113 2597 4934 2840 
Q 4756 3084 4391 3084 
Q 3944 3084 3684 2787 
Q 3425 2491 3425 1978 
L 3425 0 
L 2847 0 
L 2847 2094 
Q 2847 2600 2669 2842 
Q 2491 3084 2119 3084 
Q 1678 3084 1418 2786 
Q 1159 2488 1159 1978 
L 1159 0 
L 581 0 
L 581 3500 
L 1159 3500 
L 1159 2956 
Q 1356 3278 1631 3431 
Q 1906 3584 2284 3584 
Q 2666 3584 2933 3390 
Q 3200 3197 3328 2828 
z
" transform="scale(0.015625)"/>
      <path id="DejaVuSans-62" d="M 3116 1747 
Q 3116 2381 2855 2742 
Q 2594 3103 2138 3103 
Q 1681 3103 1420 2742 
Q 1159 2381 1159 1747 
Q 1159 1113 1420 752 
Q 1681 391 2138 391 
Q 2594 391 2855 752 
Q 3116 1113 3116 1747 
z
M 1159 2969 
Q 1341 3281 1617 3432 
Q 1894 3584 2278 3584 
Q 2916 3584 3314 3078 
Q 3713 2572 3713 1747 
Q 3713 922 3314 415 
Q 2916 -91 2278 -91 
Q 1894 -91 1617 61 
Q 1341 213 1159 525 
L 1159 0 
L 581 0 
L 581 4863 
L 1159 4863 
L 1159 2969 
z
" transform="scale(0.015625)"/>
      <path id="DejaVuSans-6f" d="M 1959 3097 
Q 1497 3097 1228 2736 
Q 959 2375 959 1747 
Q 959 1119 1226 758 
Q 1494 397 1959 397 
Q 2419 397 2687 759 
Q 2956 1122 2956 1747 
Q 2956 2369 2687 2733 
Q 2419 3097 1959 3097 
z
M 1959 3584 
Q 2709 3584 3137 3096 
Q 3566 2609 3566 1747 
Q 3566 888 3137 398 
Q 2709 -91 1959 -91 
Q 1206 -91 779 398 
Q 353 888 353 1747 
Q 353 2609 779 3096 
Q 1206 3584 1959 3584 
z
" transform="scale(0.015625)"/>
      <path id="DejaVuSans-63" d="M 3122 3366 
L 3122 2828 
Q 2878 2963 2633 3030 
Q 2388 3097 2138 3097 
Q 1578 3097 1268 2742 
Q 959 2388 959 1747 
Q 959 1106 1268 751 
Q 1578 397 2138 397 
Q 2388 397 2633 464 
Q 2878 531 3122 666 
L 3122 134 
Q 2881 22 2623 -34 
Q 2366 -91 2075 -91 
Q 1284 -91 818 406 
Q 353 903 353 1747 
Q 353 2603 823 3093 
Q 1294 3584 2113 3584 
Q 2378 3584 2631 3529 
Q 2884 3475 3122 3366 
z
" transform="scale(0.015625)"/>
     </defs>
     <use xlink:href="#DejaVuSans-4d"/>
     <use xlink:href="#DejaVuSans-50" transform="translate(86.279297 0)"/>
     <use xlink:href="#DejaVuSans-44" transform="translate(146.582031 0)"/>
     <use xlink:href="#DejaVuSans-41" transform="translate(221.833984 0)"/>
     <use xlink:href="#DejaVuSans-54" transform="translate(282.492188 0)"/>
     <use xlink:href="#DejaVuSans-41" transform="translate(335.826172 0)"/>
     <use xlink:href="#DejaVuSans-20" transform="translate(404.234375 0)"/>
     <use xlink:href="#DejaVuSans-77" transform="translate(436.021484 0)"/>
     <use xlink:href="#DejaVuSans-69" transform="translate(517.808594 0)"/>
     <use xlink:href="#DejaVuSans-74" transform="translate(545.591797 0)"/>
     <use xlink:href="#DejaVuSans-68" transform="translate(584.800781 0)"/>
     <use xlink:href="#DejaVuSans-20" transform="translate(648.179688 0)"/>
     <use xlink:href="#DejaVuSans-64" transform="translate(679.966797 0)"/>
     <use xlink:href="#DejaVuSans-69" transform="translate(743.443359 0)"/>
     <use xlink:href="#DejaVuSans-66" transform="translate(771.226562 0)"/>
     <use xlink:href="#DejaVuSans-66" transform="translate(806.431641 0)"/>
     <use xlink:href="#DejaVuSans-65" transform="translate(841.636719 0)"/>
     <use xlink:href="#DejaVuSans-72" transform="translate(903.160156 0)"/>
     <use xlink:href="#DejaVuSans-65" transform="translate(942.023438 0)"/>
     <use xlink:href="#DejaVuSans-6e" transform="translate(1003.546875 0)"/>
     <use xlink:href="#DejaVuSans-74" transform="translate(1066.925781 0)"/>
     <use xlink:href="#DejaVuSans-20" transform="translate(1106.134766 0)"/>
     <use xlink:href="#DejaVuSans-6e" transform="translate(1137.921875 0)"/>
     <use xlink:href="#DejaVuSans-75" transform="translate(1201.300781 0)"/>
     <use xlink:href="#DejaVuSans-6d" transform="translate(1264.679688 0)"/>
     <use xlink:href="#DejaVuSans-62" transform="translate(1362.091797 0)"/>
     <use xlink:href="#DejaVuSans-65" transform="translate(1425.568359 0)"/>
     <use xlink:href="#DejaVuSans-72" transform="translate(1487.091797 0)"/>
     <use xlink:href="#DejaVuSans-20" transform="translate(1528.205078 0)"/>
     <use xlink:href="#DejaVuSans-6f" transform="translate(1559.992188 0)"/>
     <use xlink:href="#DejaVuSans-66" transform="translate(1621.173828 0)"/>
     <use xlink:href="#DejaVuSans-20" transform="translate(1656.378906 0)"/>
     <use xlink:href="#DejaVuSans-63" transform="translate(1688.166016 0)"/>
     <use xlink:href="#DejaVuSans-6f" transform="translate(1743.146484 0)"/>
     <use xlink:href="#DejaVuSans-72" transform="translate(1804.328125 0)"/>
     <use xlink:href="#DejaVuSans-72" transform="translate(1843.691406 0)"/>
     <use xlink:href="#DejaVuSans-65" transform="translate(1882.554688 0)"/>
     <use xlink:href="#DejaVuSans-63" transform="translate(1944.078125 0)"/>
     <use xlink:href="#DejaVuSans-74" transform="translate(1999.058594 0)"/>
     <use xlink:href="#DejaVuSans-69" transform="translate(2038.267578 0)"/>
     <use xlink:href="#DejaVuSans-6f" transform="translate(2066.050781 0)"/>
     <use xlink:href="#DejaVuSans-6e" transform="translate(2127.232422 0)"/>
     <use xlink:href="#DejaVuSans-73" transform="translate(2190.611328 0)"/>
    </g>
   </g>
   <g id="legend_1">
    <g id="patch_7">
     <path d="M 407.90125 252.281937 
L 510.943437 252.281937 
Q 512.943437 252.281937 512.943437 250.281937 
L 512.943437 60.466312 
Q 512.943437 58.466312 510.943437 58.466312 
L 407.90125 58.466312 
Q 405.90125 58.466312 405.90125 60.466312 
L 405.90125 250.281937 
Q 405.90125 252.281937 407.90125 252.281937 
z
" style="fill: #ffffff; opacity: 0.8; stroke: #cccccc; stroke-linejoin: miter"/>
    </g>
    <g id="line2d_44">
     <path d="M 409.90125 66.56475 
L 414.90125 66.56475 
L 414.90125 66.56475 
L 424.90125 66.56475 
L 424.90125 66.56475 
L 429.90125 66.56475 
" style="fill: none; stroke: #808080; stroke-width: 1.5; stroke-linecap: square"/>
    </g>
    <g id="text_19">
     <!-- Initial -->
     <g transform="translate(437.90125 70.06475) scale(0.1 -0.1)">
      <defs>
       <path id="DejaVuSans-49" d="M 628 4666 
L 1259 4666 
L 1259 0 
L 628 0 
L 628 4666 
z
" transform="scale(0.015625)"/>
       <path id="DejaVuSans-61" d="M 2194 1759 
Q 1497 1759 1228 1600 
Q 959 1441 959 1056 
Q 959 750 1161 570 
Q 1363 391 1709 391 
Q 2188 391 2477 730 
Q 2766 1069 2766 1631 
L 2766 1759 
L 2194 1759 
z
M 3341 1997 
L 3341 0 
L 2766 0 
L 2766 531 
Q 2569 213 2275 61 
Q 1981 -91 1556 -91 
Q 1019 -91 701 211 
Q 384 513 384 1019 
Q 384 1609 779 1909 
Q 1175 2209 1959 2209 
L 2766 2209 
L 2766 2266 
Q 2766 2663 2505 2880 
Q 2244 3097 1772 3097 
Q 1472 3097 1187 3025 
Q 903 2953 641 2809 
L 641 3341 
Q 956 3463 1253 3523 
Q 1550 3584 1831 3584 
Q 2591 3584 2966 3190 
Q 3341 2797 3341 1997 
z
" transform="scale(0.015625)"/>
       <path id="DejaVuSans-6c" d="M 603 4863 
L 1178 4863 
L 1178 0 
L 603 0 
L 603 4863 
z
" transform="scale(0.015625)"/>
      </defs>
      <use xlink:href="#DejaVuSans-49"/>
      <use xlink:href="#DejaVuSans-6e" transform="translate(29.492188 0)"/>
      <use xlink:href="#DejaVuSans-69" transform="translate(92.871094 0)"/>
      <use xlink:href="#DejaVuSans-74" transform="translate(120.654297 0)"/>
      <use xlink:href="#DejaVuSans-69" transform="translate(159.863281 0)"/>
      <use xlink:href="#DejaVuSans-61" transform="translate(187.646484 0)"/>
      <use xlink:href="#DejaVuSans-6c" transform="translate(248.925781 0)"/>
     </g>
    </g>
    <g id="line2d_45">
     <path d="M 409.90125 81.242875 
L 414.90125 81.242875 
L 414.90125 81.242875 
L 424.90125 81.242875 
L 424.90125 81.242875 
L 429.90125 81.242875 
" style="fill: none; stroke: #000000; stroke-width: 1.5; stroke-linecap: square"/>
    </g>
    <g id="text_20">
     <!-- Analytic -->
     <g transform="translate(437.90125 84.742875) scale(0.1 -0.1)">
      <defs>
       <path id="DejaVuSans-79" d="M 2059 -325 
Q 1816 -950 1584 -1140 
Q 1353 -1331 966 -1331 
L 506 -1331 
L 506 -850 
L 844 -850 
Q 1081 -850 1212 -737 
Q 1344 -625 1503 -206 
L 1606 56 
L 191 3500 
L 800 3500 
L 1894 763 
L 2988 3500 
L 3597 3500 
L 2059 -325 
z
" transform="scale(0.015625)"/>
      </defs>
      <use xlink:href="#DejaVuSans-41"/>
      <use xlink:href="#DejaVuSans-6e" transform="translate(68.408203 0)"/>
      <use xlink:href="#DejaVuSans-61" transform="translate(131.787109 0)"/>
      <use xlink:href="#DejaVuSans-6c" transform="translate(193.066406 0)"/>
      <use xlink:href="#DejaVuSans-79" transform="translate(220.849609 0)"/>
      <use xlink:href="#DejaVuSans-74" transform="translate(280.029297 0)"/>
      <use xlink:href="#DejaVuSans-69" transform="translate(319.238281 0)"/>
      <use xlink:href="#DejaVuSans-63" transform="translate(347.021484 0)"/>
     </g>
    </g>
    <g id="line2d_46">
     <path d="M 409.90125 95.921 
L 414.90125 95.921 
L 414.90125 95.921 
L 424.90125 95.921 
L 424.90125 95.921 
L 429.90125 95.921 
" style="fill: none; stroke: #1f77b4; stroke-width: 1.5; stroke-linecap: square"/>
    </g>
    <g id="text_21">
     <!-- MPDATA n=1 -->
     <g transform="translate(437.90125 99.421) scale(0.1 -0.1)">
      <defs>
       <path id="DejaVuSans-3d" d="M 678 2906 
L 4684 2906 
L 4684 2381 
L 678 2381 
L 678 2906 
z
M 678 1631 
L 4684 1631 
L 4684 1100 
L 678 1100 
L 678 1631 
z
" transform="scale(0.015625)"/>
      </defs>
      <use xlink:href="#DejaVuSans-4d"/>
      <use xlink:href="#DejaVuSans-50" transform="translate(86.279297 0)"/>
      <use xlink:href="#DejaVuSans-44" transform="translate(146.582031 0)"/>
      <use xlink:href="#DejaVuSans-41" transform="translate(221.833984 0)"/>
      <use xlink:href="#DejaVuSans-54" transform="translate(282.492188 0)"/>
      <use xlink:href="#DejaVuSans-41" transform="translate(335.826172 0)"/>
      <use xlink:href="#DejaVuSans-20" transform="translate(404.234375 0)"/>
      <use xlink:href="#DejaVuSans-6e" transform="translate(436.021484 0)"/>
      <use xlink:href="#DejaVuSans-3d" transform="translate(499.400391 0)"/>
      <use xlink:href="#DejaVuSans-31" transform="translate(583.189453 0)"/>
     </g>
    </g>
    <g id="line2d_47">
     <path d="M 409.90125 110.599125 
L 414.90125 110.599125 
L 414.90125 110.599125 
L 424.90125 110.599125 
L 424.90125 110.599125 
L 429.90125 110.599125 
" style="fill: none; stroke: #ff7f0e; stroke-width: 1.5; stroke-linecap: square"/>
    </g>
    <g id="text_22">
     <!-- MPDATA n=2 -->
     <g transform="translate(437.90125 114.099125) scale(0.1 -0.1)">
      <use xlink:href="#DejaVuSans-4d"/>
      <use xlink:href="#DejaVuSans-50" transform="translate(86.279297 0)"/>
      <use xlink:href="#DejaVuSans-44" transform="translate(146.582031 0)"/>
      <use xlink:href="#DejaVuSans-41" transform="translate(221.833984 0)"/>
      <use xlink:href="#DejaVuSans-54" transform="translate(282.492188 0)"/>
      <use xlink:href="#DejaVuSans-41" transform="translate(335.826172 0)"/>
      <use xlink:href="#DejaVuSans-20" transform="translate(404.234375 0)"/>
      <use xlink:href="#DejaVuSans-6e" transform="translate(436.021484 0)"/>
      <use xlink:href="#DejaVuSans-3d" transform="translate(499.400391 0)"/>
      <use xlink:href="#DejaVuSans-32" transform="translate(583.189453 0)"/>
     </g>
    </g>
    <g id="line2d_48">
     <path d="M 409.90125 125.27725 
L 414.90125 125.27725 
L 414.90125 125.27725 
L 424.90125 125.27725 
L 424.90125 125.27725 
L 429.90125 125.27725 
" style="fill: none; stroke: #2ca02c; stroke-width: 1.5; stroke-linecap: square"/>
    </g>
    <g id="text_23">
     <!-- MPDATA n=3 -->
     <g transform="translate(437.90125 128.77725) scale(0.1 -0.1)">
      <use xlink:href="#DejaVuSans-4d"/>
      <use xlink:href="#DejaVuSans-50" transform="translate(86.279297 0)"/>
      <use xlink:href="#DejaVuSans-44" transform="translate(146.582031 0)"/>
      <use xlink:href="#DejaVuSans-41" transform="translate(221.833984 0)"/>
      <use xlink:href="#DejaVuSans-54" transform="translate(282.492188 0)"/>
      <use xlink:href="#DejaVuSans-41" transform="translate(335.826172 0)"/>
      <use xlink:href="#DejaVuSans-20" transform="translate(404.234375 0)"/>
      <use xlink:href="#DejaVuSans-6e" transform="translate(436.021484 0)"/>
      <use xlink:href="#DejaVuSans-3d" transform="translate(499.400391 0)"/>
      <use xlink:href="#DejaVuSans-33" transform="translate(583.189453 0)"/>
     </g>
    </g>
    <g id="line2d_49">
     <path d="M 409.90125 139.955375 
L 414.90125 139.955375 
L 414.90125 139.955375 
L 424.90125 139.955375 
L 424.90125 139.955375 
L 429.90125 139.955375 
" style="fill: none; stroke: #d62728; stroke-width: 1.5; stroke-linecap: square"/>
    </g>
    <g id="text_24">
     <!-- MPDATA n=4 -->
     <g transform="translate(437.90125 143.455375) scale(0.1 -0.1)">
      <use xlink:href="#DejaVuSans-4d"/>
      <use xlink:href="#DejaVuSans-50" transform="translate(86.279297 0)"/>
      <use xlink:href="#DejaVuSans-44" transform="translate(146.582031 0)"/>
      <use xlink:href="#DejaVuSans-41" transform="translate(221.833984 0)"/>
      <use xlink:href="#DejaVuSans-54" transform="translate(282.492188 0)"/>
      <use xlink:href="#DejaVuSans-41" transform="translate(335.826172 0)"/>
      <use xlink:href="#DejaVuSans-20" transform="translate(404.234375 0)"/>
      <use xlink:href="#DejaVuSans-6e" transform="translate(436.021484 0)"/>
      <use xlink:href="#DejaVuSans-3d" transform="translate(499.400391 0)"/>
      <use xlink:href="#DejaVuSans-34" transform="translate(583.189453 0)"/>
     </g>
    </g>
    <g id="line2d_50">
     <path d="M 409.90125 154.6335 
L 414.90125 154.6335 
L 414.90125 154.6335 
L 424.90125 154.6335 
L 424.90125 154.6335 
L 429.90125 154.6335 
" style="fill: none; stroke: #9467bd; stroke-width: 1.5; stroke-linecap: square"/>
    </g>
    <g id="text_25">
     <!-- MPDATA n=5 -->
     <g transform="translate(437.90125 158.1335) scale(0.1 -0.1)">
      <use xlink:href="#DejaVuSans-4d"/>
      <use xlink:href="#DejaVuSans-50" transform="translate(86.279297 0)"/>
      <use xlink:href="#DejaVuSans-44" transform="translate(146.582031 0)"/>
      <use xlink:href="#DejaVuSans-41" transform="translate(221.833984 0)"/>
      <use xlink:href="#DejaVuSans-54" transform="translate(282.492188 0)"/>
      <use xlink:href="#DejaVuSans-41" transform="translate(335.826172 0)"/>
      <use xlink:href="#DejaVuSans-20" transform="translate(404.234375 0)"/>
      <use xlink:href="#DejaVuSans-6e" transform="translate(436.021484 0)"/>
      <use xlink:href="#DejaVuSans-3d" transform="translate(499.400391 0)"/>
      <use xlink:href="#DejaVuSans-35" transform="translate(583.189453 0)"/>
     </g>
    </g>
    <g id="line2d_51">
     <path d="M 409.90125 169.311625 
L 414.90125 169.311625 
L 414.90125 169.311625 
L 424.90125 169.311625 
L 424.90125 169.311625 
L 429.90125 169.311625 
" style="fill: none; stroke: #8c564b; stroke-width: 1.5; stroke-linecap: square"/>
    </g>
    <g id="text_26">
     <!-- MPDATA n=6 -->
     <g transform="translate(437.90125 172.811625) scale(0.1 -0.1)">
      <use xlink:href="#DejaVuSans-4d"/>
      <use xlink:href="#DejaVuSans-50" transform="translate(86.279297 0)"/>
      <use xlink:href="#DejaVuSans-44" transform="translate(146.582031 0)"/>
      <use xlink:href="#DejaVuSans-41" transform="translate(221.833984 0)"/>
      <use xlink:href="#DejaVuSans-54" transform="translate(282.492188 0)"/>
      <use xlink:href="#DejaVuSans-41" transform="translate(335.826172 0)"/>
      <use xlink:href="#DejaVuSans-20" transform="translate(404.234375 0)"/>
      <use xlink:href="#DejaVuSans-6e" transform="translate(436.021484 0)"/>
      <use xlink:href="#DejaVuSans-3d" transform="translate(499.400391 0)"/>
      <use xlink:href="#DejaVuSans-36" transform="translate(583.189453 0)"/>
     </g>
    </g>
    <g id="line2d_52">
     <path d="M 409.90125 183.98975 
L 414.90125 183.98975 
L 414.90125 183.98975 
L 424.90125 183.98975 
L 424.90125 183.98975 
L 429.90125 183.98975 
" style="fill: none; stroke: #e377c2; stroke-width: 1.5; stroke-linecap: square"/>
    </g>
    <g id="text_27">
     <!-- MPDATA n=7 -->
     <g transform="translate(437.90125 187.48975) scale(0.1 -0.1)">
      <defs>
       <path id="DejaVuSans-37" d="M 525 4666 
L 3525 4666 
L 3525 4397 
L 1831 0 
L 1172 0 
L 2766 4134 
L 525 4134 
L 525 4666 
z
" transform="scale(0.015625)"/>
      </defs>
      <use xlink:href="#DejaVuSans-4d"/>
      <use xlink:href="#DejaVuSans-50" transform="translate(86.279297 0)"/>
      <use xlink:href="#DejaVuSans-44" transform="translate(146.582031 0)"/>
      <use xlink:href="#DejaVuSans-41" transform="translate(221.833984 0)"/>
      <use xlink:href="#DejaVuSans-54" transform="translate(282.492188 0)"/>
      <use xlink:href="#DejaVuSans-41" transform="translate(335.826172 0)"/>
      <use xlink:href="#DejaVuSans-20" transform="translate(404.234375 0)"/>
      <use xlink:href="#DejaVuSans-6e" transform="translate(436.021484 0)"/>
      <use xlink:href="#DejaVuSans-3d" transform="translate(499.400391 0)"/>
      <use xlink:href="#DejaVuSans-37" transform="translate(583.189453 0)"/>
     </g>
    </g>
    <g id="line2d_53">
     <path d="M 409.90125 198.667875 
L 414.90125 198.667875 
L 414.90125 198.667875 
L 424.90125 198.667875 
L 424.90125 198.667875 
L 429.90125 198.667875 
" style="fill: none; stroke: #7f7f7f; stroke-width: 1.5; stroke-linecap: square"/>
    </g>
    <g id="text_28">
     <!-- MPDATA n=8 -->
     <g transform="translate(437.90125 202.167875) scale(0.1 -0.1)">
      <use xlink:href="#DejaVuSans-4d"/>
      <use xlink:href="#DejaVuSans-50" transform="translate(86.279297 0)"/>
      <use xlink:href="#DejaVuSans-44" transform="translate(146.582031 0)"/>
      <use xlink:href="#DejaVuSans-41" transform="translate(221.833984 0)"/>
      <use xlink:href="#DejaVuSans-54" transform="translate(282.492188 0)"/>
      <use xlink:href="#DejaVuSans-41" transform="translate(335.826172 0)"/>
      <use xlink:href="#DejaVuSans-20" transform="translate(404.234375 0)"/>
      <use xlink:href="#DejaVuSans-6e" transform="translate(436.021484 0)"/>
      <use xlink:href="#DejaVuSans-3d" transform="translate(499.400391 0)"/>
      <use xlink:href="#DejaVuSans-38" transform="translate(583.189453 0)"/>
     </g>
    </g>
    <g id="line2d_54">
     <path d="M 409.90125 213.346 
L 414.90125 213.346 
L 414.90125 213.346 
L 424.90125 213.346 
L 424.90125 213.346 
L 429.90125 213.346 
" style="fill: none; stroke: #bcbd22; stroke-width: 1.5; stroke-linecap: square"/>
    </g>
    <g id="text_29">
     <!-- MPDATA n=9 -->
     <g transform="translate(437.90125 216.846) scale(0.1 -0.1)">
      <defs>
       <path id="DejaVuSans-39" d="M 703 97 
L 703 672 
Q 941 559 1184 500 
Q 1428 441 1663 441 
Q 2288 441 2617 861 
Q 2947 1281 2994 2138 
Q 2813 1869 2534 1725 
Q 2256 1581 1919 1581 
Q 1219 1581 811 2004 
Q 403 2428 403 3163 
Q 403 3881 828 4315 
Q 1253 4750 1959 4750 
Q 2769 4750 3195 4129 
Q 3622 3509 3622 2328 
Q 3622 1225 3098 567 
Q 2575 -91 1691 -91 
Q 1453 -91 1209 -44 
Q 966 3 703 97 
z
M 1959 2075 
Q 2384 2075 2632 2365 
Q 2881 2656 2881 3163 
Q 2881 3666 2632 3958 
Q 2384 4250 1959 4250 
Q 1534 4250 1286 3958 
Q 1038 3666 1038 3163 
Q 1038 2656 1286 2365 
Q 1534 2075 1959 2075 
z
" transform="scale(0.015625)"/>
      </defs>
      <use xlink:href="#DejaVuSans-4d"/>
      <use xlink:href="#DejaVuSans-50" transform="translate(86.279297 0)"/>
      <use xlink:href="#DejaVuSans-44" transform="translate(146.582031 0)"/>
      <use xlink:href="#DejaVuSans-41" transform="translate(221.833984 0)"/>
      <use xlink:href="#DejaVuSans-54" transform="translate(282.492188 0)"/>
      <use xlink:href="#DejaVuSans-41" transform="translate(335.826172 0)"/>
      <use xlink:href="#DejaVuSans-20" transform="translate(404.234375 0)"/>
      <use xlink:href="#DejaVuSans-6e" transform="translate(436.021484 0)"/>
      <use xlink:href="#DejaVuSans-3d" transform="translate(499.400391 0)"/>
      <use xlink:href="#DejaVuSans-39" transform="translate(583.189453 0)"/>
     </g>
    </g>
    <g id="line2d_55">
     <path d="M 409.90125 228.024125 
L 414.90125 228.024125 
L 414.90125 228.024125 
L 424.90125 228.024125 
L 424.90125 228.024125 
L 429.90125 228.024125 
" style="fill: none; stroke: #17becf; stroke-width: 1.5; stroke-linecap: square"/>
    </g>
    <g id="text_30">
     <!-- MPDATA n=10 -->
     <g transform="translate(437.90125 231.524125) scale(0.1 -0.1)">
      <use xlink:href="#DejaVuSans-4d"/>
      <use xlink:href="#DejaVuSans-50" transform="translate(86.279297 0)"/>
      <use xlink:href="#DejaVuSans-44" transform="translate(146.582031 0)"/>
      <use xlink:href="#DejaVuSans-41" transform="translate(221.833984 0)"/>
      <use xlink:href="#DejaVuSans-54" transform="translate(282.492188 0)"/>
      <use xlink:href="#DejaVuSans-41" transform="translate(335.826172 0)"/>
      <use xlink:href="#DejaVuSans-20" transform="translate(404.234375 0)"/>
      <use xlink:href="#DejaVuSans-6e" transform="translate(436.021484 0)"/>
      <use xlink:href="#DejaVuSans-3d" transform="translate(499.400391 0)"/>
      <use xlink:href="#DejaVuSans-31" transform="translate(583.189453 0)"/>
      <use xlink:href="#DejaVuSans-30" transform="translate(646.8125 0)"/>
     </g>
    </g>
    <g id="line2d_56">
     <path d="M 409.90125 242.70225 
L 414.90125 242.70225 
L 414.90125 242.70225 
L 424.90125 242.70225 
L 424.90125 242.70225 
L 429.90125 242.70225 
" style="fill: none; stroke: #ff0000; stroke-width: 1.5; stroke-linecap: square"/>
    </g>
    <g id="text_31">
     <!-- UPWIND -->
     <g transform="translate(437.90125 246.20225) scale(0.1 -0.1)">
      <defs>
       <path id="DejaVuSans-55" d="M 556 4666 
L 1191 4666 
L 1191 1831 
Q 1191 1081 1462 751 
Q 1734 422 2344 422 
Q 2950 422 3222 751 
Q 3494 1081 3494 1831 
L 3494 4666 
L 4128 4666 
L 4128 1753 
Q 4128 841 3676 375 
Q 3225 -91 2344 -91 
Q 1459 -91 1007 375 
Q 556 841 556 1753 
L 556 4666 
z
" transform="scale(0.015625)"/>
       <path id="DejaVuSans-57" d="M 213 4666 
L 850 4666 
L 1831 722 
L 2809 4666 
L 3519 4666 
L 4500 722 
L 5478 4666 
L 6119 4666 
L 4947 0 
L 4153 0 
L 3169 4050 
L 2175 0 
L 1381 0 
L 213 4666 
z
" transform="scale(0.015625)"/>
       <path id="DejaVuSans-4e" d="M 628 4666 
L 1478 4666 
L 3547 763 
L 3547 4666 
L 4159 4666 
L 4159 0 
L 3309 0 
L 1241 3903 
L 1241 0 
L 628 0 
L 628 4666 
z
" transform="scale(0.015625)"/>
      </defs>
      <use xlink:href="#DejaVuSans-55"/>
      <use xlink:href="#DejaVuSans-50" transform="translate(73.193359 0)"/>
      <use xlink:href="#DejaVuSans-57" transform="translate(133.496094 0)"/>
      <use xlink:href="#DejaVuSans-49" transform="translate(232.373047 0)"/>
      <use xlink:href="#DejaVuSans-4e" transform="translate(261.865234 0)"/>
      <use xlink:href="#DejaVuSans-44" transform="translate(336.669922 0)"/>
     </g>
    </g>
   </g>
  </g>
 </g>
 <defs>
  <clipPath id="p8731d51228">
   <rect x="43.78125" y="22.318125" width="357.12" height="266.112"/>
  </clipPath>
 </defs>
</svg>
